# xmcd
#
# Track frame offsets: 
#        150
#        12109
#        24767
#        40684
#        52643
#        67815
#        79955
#        95651
#        110585
#        123594
#        138844
#        151964
#        164593
#        176298
#        190260
#        204780
#        218439
#        231928
#        247128
#        262683
#        277611
#
# Disc length: 3873 seconds
#
# Revision: 0
# Processed by: cddbd v1.5.2PL0 Copyright (c) Steve Scherf et al.
# Submitted via: ExactAudioCopy v0.99pb5
#
DISCID=020f1f15
DTITLE=Various Artist - Ladies Of Song Vol 3
DYEAR=2000
DGENRE=Jazz
TTITLE0=My Kinda Love - Vaughan
TTITLE1=No Love No Nothing - Dinah W
TTITLE2=Nobody In Town - Bessie Smith
TTITLE3=Since I Fell For You - Dinah W
TTITLE4=One For My Baby - Horne
TTITLE5=oo Wee Walkie Talkie - Dinah W
TTITLE6=Outside Of That - Bessie Smith
TTITLE7=Paper Doll - Horne
TTITLE8=Postman Blues - Dinah W
TTITLE9=Prisoner Of Love - Horne
TTITLE10=Rich Man Blues - Dinah W
TTITLE11=Sam Jones Blues - Bessie Smith
TTITLE12=Shoo Shoo Baby - Dinah W
TTITLE13=Oh Daddy Blues - Bessie Smith
TTITLE14=Somebody Loves Me - Horne
TTITLE15=St. Louis Blues - Dinah W
TTITLE16=Stairway Ti The Stars - Dinah W
TTITLE17=Stormy Weather - Horne
TTITLE18=Tain't Nobody's Business If I Do - Bessie Smith
TTITLE19=Tete A Tete At Tea Time - Horne
TTITLE20=That's Why A Woman Loves A Heel - Dinah W
EXTD=
EXTT0=
EXTT1=
EXTT2=
EXTT3=
EXTT4=
EXTT5=
EXTT6=
EXTT7=
EXTT8=
EXTT9=
EXTT10=
EXTT11=
EXTT12=
EXTT13=
EXTT14=
EXTT15=
EXTT16=
EXTT17=
EXTT18=
EXTT19=
EXTT20=
PLAYORDER=
